{
.appVersion = "983";
copyright = "Copyright 2016 Google Inc. All Rights Reserved.";
customParameters = (
{
name = description;
value = "Designed by Monotype design team.";
},
{
name = license;
value = "This Font Software is licensed under the SIL Open Font License, Version 1.1. This Font Software is distributed on an \"AS IS\" BASIS, WITHOUT WARRANTIES OR CONDITIONS OF ANY KIND, either express or implied. See the SIL Open Font License for the specific language, permissions and limitations governing your use of this Font Software.";
},
{
name = licenseURL;
value = "http://scripts.sil.org/OFL";
},
{
name = vendorID;
value = GOOG;
},
{
name = trademark;
value = "Noto is a trademark of Google Inc.";
},
{
name = fsType;
value = (
);
},
{
name = panose;
value = (
2,
11,
5,
2,
4,
5,
4,
2,
2,
4
);
},
{
name = unicodeRanges;
value = (
116
);
},
{
name = codePageRanges;
value = (
1252
);
}
);
date = "2016-11-10 18:10:25 +0000";
designer = "Monotype Design Team";
designerURL = "http://www.monotype.com/studio";
disablesNiceNames = 1;
familyName = "Noto Sans Kayah Li";
features = (
{
code = "sub [uniA90C uniA90F uniA910 uniA912 uniA916 uniA919 uniA91A uniA91F uniA921 ] [uniA92C uniA92D ]' by [g52 g53 ];\012";
name = ccmp;
}
);
fontMaster = (
{
ascender = 2189;
capHeight = 1434;
customParameters = (
{
name = typoAscender;
value = 2189;
},
{
name = typoDescender;
value = -600;
},
{
name = typoLineGap;
value = 0;
},
{
name = winAscent;
value = 2189;
},
{
name = winDescent;
value = 600;
},
{
name = hheaAscender;
value = 2189;
},
{
name = hheaDescender;
value = -600;
},
{
name = underlinePosition;
value = -205;
},
{
name = underlineThickness;
value = 102;
}
);
descender = -600;
id = "F31DF551-7806-40B7-BED2-49416D1FEF39";
weightValue = 400;
widthValue = 5;
xHeight = 1024;
}
);
glyphs = (
{
glyphname = uniA90A;
lastChange = "2016-11-10 18:10:00 +0000";
layers = (
{
layerId = "F31DF551-7806-40B7-BED2-49416D1FEF39";
paths = (
{
closed = 1;
nodes = (
"399 0 LINE SMOOTH",
"600 0 OFFCURVE",
"700 94 OFFCURVE",
"700 297 CURVE SMOOTH",
"700 819 LINE",
"860 922 OFFCURVE",
"1050 977 OFFCURVE",
"1225 977 CURVE",
"1225 0 LINE",
"1401 0 LINE",
"1401 1118 LINE",
"1243 1118 LINE SMOOTH",
"1056 1118 OFFCURVE",
"875 1071 OFFCURVE",
"700 976 CURVE",
"700 1098 LINE",
"180 1098 LINE",
"180 954 LINE",
"526 954 LINE",
"526 857 LINE",
"302 670 OFFCURVE",
"180 406 OFFCURVE",
"180 111 CURVE SMOOTH",
"180 0 LINE"
);
},
{
closed = 1;
nodes = (
"335 348 OFFCURVE",
"399 525 OFFCURVE",
"526 672 CURVE",
"526 266 LINE SMOOTH",
"526 190 OFFCURVE",
"485 141 OFFCURVE",
"420 141 CURVE SMOOTH",
"332 141 LINE"
);
}
);
width = 1581;
}
);
note = uniA90A;
unicode = A90A;
},
{
glyphname = uniA90B;
lastChange = "2016-11-10 18:10:00 +0000";
layers = (
{
layerId = "F31DF551-7806-40B7-BED2-49416D1FEF39";
paths = (
{
closed = 1;
nodes = (
"955 -20 OFFCURVE",
"1081 -3 OFFCURVE",
"1166 30 CURVE SMOOTH",
"1334 96 OFFCURVE",
"1401 232 OFFCURVE",
"1401 541 CURVE SMOOTH",
"1401 697 OFFCURVE",
"1383 815 OFFCURVE",
"1348 895 CURVE SMOOTH",
"1277 1055 OFFCURVE",
"1131 1118 OFFCURVE",
"799 1118 CURVE SMOOTH",
"633 1118 OFFCURVE",
"508 1102 OFFCURVE",
"424 1070 CURVE SMOOTH",
"256 1006 OFFCURVE",
"180 867 OFFCURVE",
"180 616 CURVE SMOOTH",
"180 572 LINE",
"182 526 LINE",
"1219 526 LINE",
"1218 423 OFFCURVE",
"1211 348 OFFCURVE",
"1198 302 CURVE SMOOTH",
"1185 256 OFFCURVE",
"1164 220 OFFCURVE",
"1135 195 CURVE SMOOTH",
"1077 144 OFFCURVE",
"983 123 OFFCURVE",
"795 123 CURVE SMOOTH",
"677 123 OFFCURVE",
"588 132 OFFCURVE",
"528 151 CURVE SMOOTH",
"408 188 OFFCURVE",
"354 268 OFFCURVE",
"354 420 CURVE",
"180 420 LINE",
"180 309 OFFCURVE",
"199 222 OFFCURVE",
"236 159 CURVE SMOOTH",
"310 32 OFFCURVE",
"447 -20 OFFCURVE",
"788 -20 CURVE SMOOTH"
);
},
{
closed = 1;
nodes = (
"362 757 OFFCURVE",
"379 822 OFFCURVE",
"407 862 CURVE SMOOTH",
"462 942 OFFCURVE",
"570 975 OFFCURVE",
"793 975 CURVE SMOOTH",
"894 975 OFFCURVE",
"973 966 OFFCURVE",
"1031 947 CURVE SMOOTH",
"1146 910 OFFCURVE",
"1201 829 OFFCURVE",
"1213 668 CURVE",
"356 668 LINE"
);
}
);
width = 1581;
}
);
note = uniA90B;
unicode = A90B;
},
{
glyphname = uniA90C;
lastChange = "2016-11-10 18:10:00 +0000";
layers = (
{
layerId = "F31DF551-7806-40B7-BED2-49416D1FEF39";
paths = (
{
closed = 1;
nodes = (
"356 0 LINE",
"356 109 LINE SMOOTH",
"356 205 OFFCURVE",
"363 284 OFFCURVE",
"407 424 CURVE",
"1225 424 LINE",
"1225 0 LINE",
"1401 0 LINE",
"1401 1118 LINE",
"1243 1118 LINE SMOOTH",
"960 1118 OFFCURVE",
"664 997 OFFCURVE",
"477 801 CURVE SMOOTH",
"406 724 OFFCURVE",
"377 674 OFFCURVE",
"348 575 CURVE",
"338 578 LINE",
"350 641 OFFCURVE",
"356 715 OFFCURVE",
"356 801 CURVE SMOOTH",
"356 1098 LINE",
"180 1098 LINE",
"180 0 LINE"
);
},
{
closed = 1;
nodes = (
"530 658 OFFCURVE",
"600 734 OFFCURVE",
"682 795 CURVE SMOOTH",
"845 916 OFFCURVE",
"1040 981 OFFCURVE",
"1225 981 CURVE",
"1225 565 LINE",
"473 565 LINE"
);
}
);
width = 1581;
}
);
note = uniA90C;
unicode = A90C;
},
{
glyphname = uniA90D;
lastChange = "2016-11-10 18:10:00 +0000";
layers = (
{
layerId = "F31DF551-7806-40B7-BED2-49416D1FEF39";
paths = (
{
closed = 1;
nodes = (
"949 -20 OFFCURVE",
"1074 -5 OFFCURVE",
"1159 24 CURVE SMOOTH",
"1327 82 OFFCURVE",
"1401 203 OFFCURVE",
"1401 426 CURVE",
"1229 426 LINE",
"1229 348 OFFCURVE",
"1215 288 OFFCURVE",
"1187 245 CURVE SMOOTH",
"1131 159 OFFCURVE",
"1016 123 OFFCURVE",
"788 123 CURVE SMOOTH",
"672 123 OFFCURVE",
"584 135 OFFCURVE",
"525 160 CURVE SMOOTH",
"406 209 OFFCURVE",
"362 306 OFFCURVE",
"362 557 CURVE SMOOTH",
"362 688 OFFCURVE",
"374 779 OFFCURVE",
"397 832 CURVE SMOOTH",
"443 937 OFFCURVE",
"539 975 OFFCURVE",
"786 975 CURVE SMOOTH",
"1113 975 OFFCURVE",
"1231 889 OFFCURVE",
"1231 678 CURVE",
"1401 678 LINE",
"1401 789 OFFCURVE",
"1382 877 OFFCURVE",
"1345 940 CURVE SMOOTH",
"1269 1066 OFFCURVE",
"1130 1118 OFFCURVE",
"793 1118 CURVE SMOOTH",
"621 1118 OFFCURVE",
"494 1102 OFFCURVE",
"411 1069 CURVE SMOOTH",
"245 1004 OFFCURVE",
"180 866 OFFCURVE",
"180 557 CURVE SMOOTH",
"180 401 OFFCURVE",
"198 283 OFFCURVE",
"233 203 CURVE SMOOTH",
"304 43 OFFCURVE",
"450 -20 OFFCURVE",
"782 -20 CURVE SMOOTH"
);
}
);
width = 1581;
}
);
note = uniA90D;
unicode = A90D;
},
{
glyphname = uniA90E;
lastChange = "2016-11-10 18:10:00 +0000";
layers = (
{
layerId = "F31DF551-7806-40B7-BED2-49416D1FEF39";
paths = (
{
closed = 1;
nodes = (
"748 0 LINE",
"748 141 LINE",
"420 141 LINE",
"555 348 LINE",
"610 315 OFFCURVE",
"691 293 OFFCURVE",
"752 293 CURVE SMOOTH",
"795 293 OFFCURVE",
"837 303 OFFCURVE",
"876 322 CURVE SMOOTH",
"954 361 OFFCURVE",
"1001 430 OFFCURVE",
"1001 518 CURVE SMOOTH",
"1001 631 OFFCURVE",
"911 707 OFFCURVE",
"795 707 CURVE SMOOTH",
"682 707 OFFCURVE",
"609 655 OFFCURVE",
"498 496 CURVE",
"383 569 OFFCURVE",
"356 609 OFFCURVE",
"356 745 CURVE SMOOTH",
"356 906 OFFCURVE",
"492 975 OFFCURVE",
"795 975 CURVE SMOOTH",
"917 975 OFFCURVE",
"1007 963 OFFCURVE",
"1065 939 CURVE SMOOTH",
"1180 891 OFFCURVE",
"1225 790 OFFCURVE",
"1225 557 CURVE SMOOTH",
"1225 0 LINE",
"1401 0 LINE",
"1401 557 LINE SMOOTH",
"1401 724 OFFCURVE",
"1385 844 OFFCURVE",
"1352 918 CURVE SMOOTH",
"1286 1065 OFFCURVE",
"1144 1118 OFFCURVE",
"788 1118 CURVE SMOOTH",
"373 1118 OFFCURVE",
"180 1001 OFFCURVE",
"180 752 CURVE SMOOTH",
"180 699 OFFCURVE",
"189 654 OFFCURVE",
"207 615 CURVE SMOOTH",
"242 537 OFFCURVE",
"290 484 OFFCURVE",
"434 401 CURVE",
"180 27 LINE",
"180 0 LINE"
);
},
{
closed = 1;
nodes = (
"705 395 OFFCURVE",
"626 424 OFFCURVE",
"614 436 CURVE",
"665 511 OFFCURVE",
"701 557 OFFCURVE",
"722 575 CURVE SMOOTH",
"743 593 OFFCURVE",
"765 602 OFFCURVE",
"788 602 CURVE SMOOTH",
"839 602 OFFCURVE",
"879 568 OFFCURVE",
"879 504 CURVE SMOOTH",
"879 433 OFFCURVE",
"823 395 OFFCURVE",
"750 395 CURVE SMOOTH"
);
}
);
width = 1581;
}
);
note = uniA90E;
unicode = A90E;
},
{
glyphname = uniA90F;
lastChange = "2016-11-10 18:10:00 +0000";
layers = (
{
layerId = "F31DF551-7806-40B7-BED2-49416D1FEF39";
paths = (
{
closed = 1;
nodes = (
"443 -8 OFFCURVE",
"530 70 OFFCURVE",
"530 301 CURVE SMOOTH",
"530 631 LINE",
"636 631 OFFCURVE",
"739 602 OFFCURVE",
"840 543 CURVE SMOOTH",
"1041 426 OFFCURVE",
"1184 220 OFFCURVE",
"1225 0 CURVE",
"1401 0 LINE",
"1401 1098 LINE",
"180 1098 LINE",
"180 956 LINE",
"1225 956 LINE",
"1225 535 LINE SMOOTH",
"1225 448 OFFCURVE",
"1231 374 OFFCURVE",
"1243 311 CURVE",
"1233 309 LINE",
"1208 395 OFFCURVE",
"1160 473 OFFCURVE",
"1090 543 CURVE SMOOTH",
"949 683 OFFCURVE",
"740 768 OFFCURVE",
"545 768 CURVE SMOOTH",
"354 768 LINE",
"354 287 LINE SMOOTH",
"354 191 OFFCURVE",
"285 133 OFFCURVE",
"180 133 CURVE",
"180 -8 LINE"
);
}
);
width = 1581;
}
);
note = uniA90F;
unicode = A90F;
},
{
glyphname = uniA910;
lastChange = "2016-11-10 18:10:00 +0000";
layers = (
{
layerId = "F31DF551-7806-40B7-BED2-49416D1FEF39";
paths = (
{
closed = 1;
nodes = (
"356 -492 LINE",
"356 109 LINE SMOOTH",
"356 340 OFFCURVE",
"435 548 OFFCURVE",
"576 708 CURVE SMOOTH",
"717 867 OFFCURVE",
"922 975 OFFCURVE",
"1081 975 CURVE SMOOTH",
"1166 975 OFFCURVE",
"1225 919 OFFCURVE",
"1225 834 CURVE SMOOTH",
"1225 674 OFFCURVE",
"1151 560 OFFCURVE",
"958 451 CURVE",
"1165 141 LINE",
"834 141 LINE",
"834 0 LINE",
"1401 0 LINE",
"1401 27 LINE",
"1126 434 LINE",
"1165 452 OFFCURVE",
"1209 486 OFFCURVE",
"1258 536 CURVE SMOOTH",
"1354 635 OFFCURVE",
"1401 739 OFFCURVE",
"1401 840 CURVE SMOOTH",
"1401 1029 OFFCURVE",
"1295 1118 OFFCURVE",
"1110 1118 CURVE SMOOTH",
"1043 1118 OFFCURVE",
"979 1108 OFFCURVE",
"916 1089 CURVE SMOOTH",
"790 1050 OFFCURVE",
"676 984 OFFCURVE",
"559 880 CURVE SMOOTH",
"442 776 OFFCURVE",
"387 706 OFFCURVE",
"348 575 CURVE",
"338 578 LINE",
"350 641 OFFCURVE",
"356 715 OFFCURVE",
"356 801 CURVE SMOOTH",
"356 1098 LINE",
"180 1098 LINE",
"180 -492 LINE"
);
}
);
width = 1581;
}
);
note = uniA910;
unicode = A910;
},
{
glyphname = uniA911;
lastChange = "2016-11-10 18:09:50 +0000";
layers = (
{
layerId = "F31DF551-7806-40B7-BED2-49416D1FEF39";
paths = (
{
closed = 1;
nodes = (
"939 -492 OFFCURVE",
"1066 -483 OFFCURVE",
"1146 -466 CURVE SMOOTH",
"1306 -432 OFFCURVE",
"1368 -361 OFFCURVE",
"1368 -186 CURVE",
"1188 -186 LINE",
"1188 -281 OFFCURVE",
"1146 -318 OFFCURVE",
"1039 -335 CURVE SMOOTH",
"986 -344 OFFCURVE",
"895 -348 OFFCURVE",
"766 -348 CURVE SMOOTH",
"649 -348 OFFCURVE",
"564 -338 OFFCURVE",
"511 -319 CURVE SMOOTH",
"405 -281 OFFCURVE",
"365 -207 OFFCURVE",
"365 0 CURVE SMOOTH",
"365 29 OFFCURVE",
"362 59 OFFCURVE",
"356 90 CURVE",
"365 94 LINE",
"410 27 OFFCURVE",
"459 2 OFFCURVE",
"554 -10 CURVE SMOOTH",
"601 -17 OFFCURVE",
"683 -20 OFFCURVE",
"799 -20 CURVE SMOOTH",
"961 -20 OFFCURVE",
"1084 -3 OFFCURVE",
"1168 32 CURVE SMOOTH",
"1335 101 OFFCURVE",
"1401 241 OFFCURVE",
"1401 557 CURVE SMOOTH",
"1401 710 OFFCURVE",
"1383 825 OFFCURVE",
"1348 904 CURVE SMOOTH",
"1277 1060 OFFCURVE",
"1129 1118 OFFCURVE",
"788 1118 CURVE SMOOTH",
"629 1118 OFFCURVE",
"508 1104 OFFCURVE",
"425 1075 CURVE SMOOTH",
"257 1017 OFFCURVE",
"182 895 OFFCURVE",
"182 674 CURVE",
"352 674 LINE",
"352 886 OFFCURVE",
"474 975 OFFCURVE",
"795 975 CURVE SMOOTH",
"914 975 OFFCURVE",
"1003 964 OFFCURVE",
"1061 941 CURVE SMOOTH",
"1176 895 OFFCURVE",
"1219 801 OFFCURVE",
"1219 557 CURVE SMOOTH",
"1219 448 OFFCURVE",
"1213 368 OFFCURVE",
"1200 318 CURVE SMOOTH",
"1187 267 OFFCURVE",
"1166 229 OFFCURVE",
"1137 202 CURVE SMOOTH",
"1077 148 OFFCURVE",
"974 123 OFFCURVE",
"793 123 CURVE SMOOTH",
"673 123 OFFCURVE",
"583 132 OFFCURVE",
"524 151 CURVE SMOOTH",
"405 187 OFFCURVE",
"356 263 OFFCURVE",
"356 422 CURVE",
"180 422 LINE",
"180 70 LINE SMOOTH",
"180 -103 OFFCURVE",
"196 -225 OFFCURVE",
"227 -297 CURVE SMOOTH",
"289 -442 OFFCURVE",
"424 -492 OFFCURVE",
"764 -492 CURVE SMOOTH"
);
}
);
width = 1581;
}
);
note = uniA911;
unicode = A911;
},
{
glyphname = uniA912;
lastChange = "2016-11-10 18:10:00 +0000";
layers = (
{
layerId = "F31DF551-7806-40B7-BED2-49416D1FEF39";
paths = (
{
closed = 1;
nodes = (
"1298 -20 OFFCURVE",
"1401 98 OFFCURVE",
"1401 291 CURVE SMOOTH",
"1401 367 OFFCURVE",
"1381 436 OFFCURVE",
"1342 497 CURVE SMOOTH",
"1262 619 OFFCURVE",
"1115 688 OFFCURVE",
"922 688 CURVE SMOOTH",
"669 688 OFFCURVE",
"485 573 OFFCURVE",
"348 338 CURVE",
"338 340 LINE",
"350 403 OFFCURVE",
"356 477 OFFCURVE",
"356 563 CURVE SMOOTH",
"356 946 LINE",
"1372 729 LINE",
"1372 879 LINE",
"356 1098 LINE",
"180 1098 LINE",
"180 0 LINE",
"356 0 LINE",
"356 81 OFFCURVE",
"384 167 OFFCURVE",
"440 256 CURVE SMOOTH",
"551 435 OFFCURVE",
"739 551 OFFCURVE",
"922 551 CURVE SMOOTH",
"1045 551 OFFCURVE",
"1140 511 OFFCURVE",
"1192 444 CURVE",
"1169 454 OFFCURVE",
"1145 459 OFFCURVE",
"1118 459 CURVE SMOOTH",
"947 459 OFFCURVE",
"850 367 OFFCURVE",
"850 219 CURVE SMOOTH",
"850 60 OFFCURVE",
"941 -20 OFFCURVE",
"1122 -20 CURVE SMOOTH"
);
},
{
closed = 1;
nodes = (
"1047 100 OFFCURVE",
"995 146 OFFCURVE",
"995 219 CURVE SMOOTH",
"995 292 OFFCURVE",
"1045 338 OFFCURVE",
"1120 338 CURVE SMOOTH",
"1159 338 OFFCURVE",
"1200 325 OFFCURVE",
"1243 299 CURVE",
"1245 260 LINE",
"1245 172 OFFCURVE",
"1188 100 OFFCURVE",
"1120 100 CURVE SMOOTH"
);
}
);
width = 1581;
}
);
note = uniA912;
unicode = A912;
},
{
glyphname = uniA913;
lastChange = "2016-11-10 18:10:00 +0000";
layers = (
{
layerId = "F31DF551-7806-40B7-BED2-49416D1FEF39";
paths = (
{
closed = 1;
nodes = (
"955 -20 OFFCURVE",
"1084 -3 OFFCURVE",
"1169 30 CURVE SMOOTH",
"1340 96 OFFCURVE",
"1401 233 OFFCURVE",
"1401 557 CURVE SMOOTH",
"1401 1462 LINE",
"1225 1462 LINE",
"1225 1098 LINE",
"907 1098 LINE",
"907 956 LINE",
"1225 956 LINE",
"1225 557 LINE SMOOTH",
"1225 431 OFFCURVE",
"1213 339 OFFCURVE",
"1188 282 CURVE SMOOTH",
"1139 167 OFFCURVE",
"1032 123 OFFCURVE",
"788 123 CURVE SMOOTH",
"673 123 OFFCURVE",
"586 135 OFFCURVE",
"525 160 CURVE SMOOTH",
"403 209 OFFCURVE",
"354 309 OFFCURVE",
"354 557 CURVE SMOOTH",
"354 1098 LINE",
"180 1098 LINE",
"180 557 LINE SMOOTH",
"180 401 OFFCURVE",
"198 283 OFFCURVE",
"233 203 CURVE SMOOTH",
"304 43 OFFCURVE",
"450 -20 OFFCURVE",
"782 -20 CURVE SMOOTH"
);
}
);
width = 1581;
}
);
note = uniA913;
unicode = A913;
},
{
glyphname = uniA914;
lastChange = "2016-11-10 18:10:00 +0000";
layers = (
{
layerId = "F31DF551-7806-40B7-BED2-49416D1FEF39";
paths = (
{
closed = 1;
nodes = (
"1075 -492 LINE",
"1075 -346 LINE",
"793 -346 LINE SMOOTH",
"677 -346 OFFCURVE",
"590 -338 OFFCURVE",
"531 -321 CURVE SMOOTH",
"413 -288 OFFCURVE",
"365 -223 OFFCURVE",
"365 -76 CURVE SMOOTH",
"365 -15 OFFCURVE",
"363 27 OFFCURVE",
"334 104 CURVE",
"342 106 LINE",
"363 62 OFFCURVE",
"407 30 OFFCURVE",
"472 10 CURVE SMOOTH",
"537 -10 OFFCURVE",
"641 -20 OFFCURVE",
"784 -20 CURVE SMOOTH",
"931 -20 OFFCURVE",
"1049 -9 OFFCURVE",
"1139 13 CURVE SMOOTH",
"1319 56 OFFCURVE",
"1401 137 OFFCURVE",
"1401 297 CURVE SMOOTH",
"1401 372 OFFCURVE",
"1389 428 OFFCURVE",
"1366 467 CURVE SMOOTH",
"1319 543 OFFCURVE",
"1219 590 OFFCURVE",
"1020 623 CURVE SMOOTH",
"643 684 LINE SMOOTH",
"550 698 OFFCURVE",
"483 715 OFFCURVE",
"443 736 CURVE SMOOTH",
"403 756 OFFCURVE",
"383 788 OFFCURVE",
"383 831 CURVE SMOOTH",
"383 882 OFFCURVE",
"417 919 OFFCURVE",
"485 941 CURVE SMOOTH",
"552 962 OFFCURVE",
"653 973 OFFCURVE",
"786 973 CURVE SMOOTH",
"1099 973 OFFCURVE",
"1210 898 OFFCURVE",
"1210 719 CURVE",
"1380 719 LINE",
"1380 820 OFFCURVE",
"1362 899 OFFCURVE",
"1325 956 CURVE SMOOTH",
"1251 1071 OFFCURVE",
"1106 1118 OFFCURVE",
"793 1118 CURVE SMOOTH",
"650 1118 OFFCURVE",
"535 1108 OFFCURVE",
"450 1087 CURVE SMOOTH",
"278 1046 OFFCURVE",
"201 969 OFFCURVE",
"201 813 CURVE SMOOTH",
"201 752 OFFCURVE",
"211 707 OFFCURVE",
"231 676 CURVE SMOOTH",
"271 614 OFFCURVE",
"354 575 OFFCURVE",
"514 547 CURVE SMOOTH",
"938 475 LINE SMOOTH",
"1049 456 OFFCURVE",
"1124 435 OFFCURVE",
"1162 410 CURVE SMOOTH",
"1200 385 OFFCURVE",
"1219 348 OFFCURVE",
"1219 299 CURVE SMOOTH",
"1219 226 OFFCURVE",
"1188 187 OFFCURVE",
"1126 162 CURVE SMOOTH",
"1064 137 OFFCURVE",
"948 123 OFFCURVE",
"793 123 CURVE SMOOTH",
"646 123 OFFCURVE",
"538 137 OFFCURVE",
"469 165 CURVE SMOOTH",
"400 192 OFFCURVE",
"365 236 OFFCURVE",
"365 295 CURVE",
"526 295 LINE",
"526 436 LINE",
"180 436 LINE",
"180 70 LINE SMOOTH",
"180 -96 OFFCURVE",
"197 -216 OFFCURVE",
"232 -290 CURVE SMOOTH",
"301 -439 OFFCURVE",
"444 -492 OFFCURVE",
"793 -492 CURVE SMOOTH"
);
}
);
width = 1581;
}
);
note = uniA914;
unicode = A914;
},
{
glyphname = uniA915;
lastChange = "2016-11-10 18:10:00 +0000";
layers = (
{
layerId = "F31DF551-7806-40B7-BED2-49416D1FEF39";
paths = (
{
closed = 1;
nodes = (
"940 -20 OFFCURVE",
"1062 -5 OFFCURVE",
"1149 25 CURVE SMOOTH",
"1322 84 OFFCURVE",
"1401 207 OFFCURVE",
"1401 426 CURVE",
"1229 426 LINE",
"1229 348 OFFCURVE",
"1215 287 OFFCURVE",
"1188 244 CURVE SMOOTH",
"1133 157 OFFCURVE",
"1024 123 OFFCURVE",
"788 123 CURVE SMOOTH",
"499 123 OFFCURVE",
"392 192 OFFCURVE",
"368 412 CURVE",
"363 482 LINE",
"1401 651 LINE",
"1398 772 OFFCURVE",
"1377 865 OFFCURVE",
"1340 932 CURVE SMOOTH",
"1264 1065 OFFCURVE",
"1121 1118 OFFCURVE",
"793 1118 CURVE SMOOTH",
"621 1118 OFFCURVE",
"494 1102 OFFCURVE",
"411 1069 CURVE SMOOTH",
"245 1004 OFFCURVE",
"180 866 OFFCURVE",
"180 557 CURVE SMOOTH",
"180 401 OFFCURVE",
"198 283 OFFCURVE",
"233 203 CURVE SMOOTH",
"304 43 OFFCURVE",
"450 -20 OFFCURVE",
"782 -20 CURVE SMOOTH"
);
},
{
closed = 1;
nodes = (
"366 728 OFFCURVE",
"379 800 OFFCURVE",
"404 847 CURVE SMOOTH",
"453 940 OFFCURVE",
"553 973 OFFCURVE",
"786 973 CURVE SMOOTH",
"1071 973 OFFCURVE",
"1187 912 OFFCURVE",
"1210 768 CURVE",
"363 631 LINE"
);
}
);
width = 1581;
}
);
note = uniA915;
unicode = A915;
},
{
glyphname = uniA916;
lastChange = "2016-11-10 18:10:00 +0000";
layers = (
{
layerId = "F31DF551-7806-40B7-BED2-49416D1FEF39";
paths = (
{
closed = 1;
nodes = (
"1468 133 LINE",
"1384 133 OFFCURVE",
"1360 169 OFFCURVE",
"1360 281 CURVE SMOOTH",
"1360 1055 LINE",
"1198 1055 LINE SMOOTH",
"931 1055 OFFCURVE",
"673 947 OFFCURVE",
"477 739 CURVE SMOOTH",
"401 656 OFFCURVE",
"376 610 OFFCURVE",
"348 514 CURVE",
"338 516 LINE",
"350 579 OFFCURVE",
"356 653 OFFCURVE",
"356 739 CURVE SMOOTH",
"356 1012 LINE SMOOTH",
"356 1108 OFFCURVE",
"369 1180 OFFCURVE",
"394 1227 CURVE SMOOTH",
"444 1322 OFFCURVE",
"543 1358 OFFCURVE",
"795 1358 CURVE SMOOTH",
"900 1358 OFFCURVE",
"978 1354 OFFCURVE",
"1029 1346 CURVE SMOOTH",
"1131 1330 OFFCURVE",
"1171 1296 OFFCURVE",
"1171 1219 CURVE",
"1358 1219 LINE",
"1358 1368 OFFCURVE",
"1293 1441 OFFCURVE",
"1139 1477 CURVE SMOOTH",
"1062 1494 OFFCURVE",
"946 1503 OFFCURVE",
"793 1503 CURVE SMOOTH",
"618 1503 OFFCURVE",
"490 1488 OFFCURVE",
"407 1458 CURVE SMOOTH",
"241 1398 OFFCURVE",
"180 1273 OFFCURVE",
"180 942 CURVE SMOOTH",
"180 0 LINE",
"356 0 LINE",
"356 47 LINE SMOOTH",
"356 303 OFFCURVE",
"440 516 OFFCURVE",
"590 667 CURVE SMOOTH",
"740 818 OFFCURVE",
"963 911 OFFCURVE",
"1184 911 CURVE",
"1184 254 LINE SMOOTH",
"1184 171 OFFCURVE",
"1193 113 OFFCURVE",
"1210 81 CURVE SMOOTH",
"1244 17 OFFCURVE",
"1316 -8 OFFCURVE",
"1468 -8 CURVE"
);
}
);
width = 1581;
}
);
note = uniA916;
unicode = A916;
},
{
glyphname = uniA917;
lastChange = "2016-11-10 18:10:00 +0000";
layers = (
{
layerId = "F31DF551-7806-40B7-BED2-49416D1FEF39";
paths = (
{
closed = 1;
nodes = (
"955 -20 OFFCURVE",
"1084 -3 OFFCURVE",
"1169 30 CURVE SMOOTH",
"1340 96 OFFCURVE",
"1401 233 OFFCURVE",
"1401 557 CURVE SMOOTH",
"1401 1098 LINE",
"1225 1098 LINE",
"1225 557 LINE SMOOTH",
"1225 504 OFFCURVE",
"1223 456 OFFCURVE",
"1218 414 CURVE",
"784 733 LINE",
"363 408 LINE",
"358 453 OFFCURVE",
"356 502 OFFCURVE",
"356 557 CURVE SMOOTH",
"356 1098 LINE",
"180 1098 LINE",
"180 557 LINE SMOOTH",
"180 401 OFFCURVE",
"198 283 OFFCURVE",
"233 203 CURVE SMOOTH",
"304 43 OFFCURVE",
"450 -20 OFFCURVE",
"782 -20 CURVE SMOOTH"
);
},
{
closed = 1;
nodes = (
"575 123 OFFCURVE",
"464 162 OFFCURVE",
"408 257 CURVE",
"784 545 LINE",
"1175 256 LINE",
"1124 163 OFFCURVE",
"1016 123 OFFCURVE",
"788 123 CURVE SMOOTH"
);
}
);
width = 1581;
}
);
note = uniA917;
unicode = A917;
},
{
glyphname = uniA918;
lastChange = "2016-11-10 18:10:00 +0000";
layers = (
{
layerId = "F31DF551-7806-40B7-BED2-49416D1FEF39";
paths = (
{
closed = 1;
nodes = (
"1104 0 LINE SMOOTH",
"1179 0 OFFCURVE",
"1238 9 OFFCURVE",
"1279 27 CURVE SMOOTH",
"1361 62 OFFCURVE",
"1401 139 OFFCURVE",
"1401 268 CURVE SMOOTH",
"1401 530 LINE",
"1294 530 LINE SMOOTH",
"1046 530 OFFCURVE",
"800 401 OFFCURVE",
"569 141 CURVE",
"383 141 LINE",
"1339 1071 LINE",
"1339 1098 LINE",
"221 1098 LINE",
"221 950 LINE",
"993 950 LINE",
"180 156 LINE",
"180 0 LINE"
);
},
{
closed = 1;
nodes = (
"842 211 OFFCURVE",
"903 259 OFFCURVE",
"946 285 CURVE SMOOTH",
"1030 337 OFFCURVE",
"1121 373 OFFCURVE",
"1225 377 CURVE",
"1225 254 LINE SMOOTH",
"1225 183 OFFCURVE",
"1183 141 OFFCURVE",
"1108 141 CURVE SMOOTH",
"762 141 LINE"
);
}
);
width = 1581;
}
);
note = uniA918;
unicode = A918;
},
{
glyphname = uniA919;
lastChange = "2016-11-10 18:10:00 +0000";
layers = (
{
layerId = "F31DF551-7806-40B7-BED2-49416D1FEF39";
paths = (
{
closed = 1;
nodes = (
"1308 -20 OFFCURVE",
"1401 90 OFFCURVE",
"1401 311 CURVE SMOOTH",
"1401 1118 LINE",
"1243 1118 LINE SMOOTH",
"960 1118 OFFCURVE",
"664 997 OFFCURVE",
"477 801 CURVE SMOOTH",
"406 724 OFFCURVE",
"377 674 OFFCURVE",
"348 575 CURVE",
"338 578 LINE",
"350 641 OFFCURVE",
"356 715 OFFCURVE",
"356 801 CURVE SMOOTH",
"356 1098 LINE",
"180 1098 LINE",
"180 0 LINE",
"356 0 LINE",
"356 109 LINE SMOOTH",
"356 362 OFFCURVE",
"445 578 OFFCURVE",
"604 730 CURVE SMOOTH",
"763 882 OFFCURVE",
"1001 981 OFFCURVE",
"1225 981 CURVE",
"1225 436 LINE",
"1187 451 OFFCURVE",
"1151 459 OFFCURVE",
"1118 459 CURVE SMOOTH",
"939 459 OFFCURVE",
"850 379 OFFCURVE",
"850 219 CURVE SMOOTH",
"850 60 OFFCURVE",
"941 -20 OFFCURVE",
"1122 -20 CURVE SMOOTH"
);
},
{
closed = 1;
nodes = (
"1047 100 OFFCURVE",
"995 146 OFFCURVE",
"995 219 CURVE SMOOTH",
"995 292 OFFCURVE",
"1045 338 OFFCURVE",
"1120 338 CURVE SMOOTH",
"1164 338 OFFCURVE",
"1212 321 OFFCURVE",
"1225 312 CURVE",
"1225 281 LINE SMOOTH",
"1225 160 OFFCURVE",
"1190 100 OFFCURVE",
"1120 100 CURVE SMOOTH"
);
}
);
width = 1581;
}
);
note = uniA919;
unicode = A919;
},
{
glyphname = uniA91A;
lastChange = "2016-11-10 18:10:00 +0000";
layers = (
{
layerId = "F31DF551-7806-40B7-BED2-49416D1FEF39";
paths = (
{
closed = 1;
nodes = (
"1065 -492 LINE SMOOTH",
"1289 -492 OFFCURVE",
"1401 -372 OFFCURVE",
"1401 -133 CURVE SMOOTH",
"1401 1118 LINE",
"1243 1118 LINE SMOOTH",
"958 1118 OFFCURVE",
"659 996 OFFCURVE",
"475 801 CURVE SMOOTH",
"404 724 OFFCURVE",
"375 674 OFFCURVE",
"346 575 CURVE",
"336 578 LINE",
"348 641 OFFCURVE",
"354 715 OFFCURVE",
"354 801 CURVE SMOOTH",
"354 1098 LINE",
"180 1098 LINE",
"180 0 LINE",
"354 0 LINE",
"354 109 LINE SMOOTH",
"354 362 OFFCURVE",
"442 575 OFFCURVE",
"602 729 CURVE SMOOTH",
"761 883 OFFCURVE",
"1001 981 OFFCURVE",
"1225 981 CURVE",
"1225 -170 LINE SMOOTH",
"1225 -286 OFFCURVE",
"1167 -350 OFFCURVE",
"1079 -350 CURVE SMOOTH",
"1012 -350 LINE",
"1012 -492 LINE"
);
}
);
width = 1581;
}
);
note = uniA91A;
unicode = A91A;
},
{
glyphname = uniA91B;
lastChange = "2016-11-10 18:10:00 +0000";
layers = (
{
layerId = "F31DF551-7806-40B7-BED2-49416D1FEF39";
paths = (
{
closed = 1;
nodes = (
"804 -20 OFFCURVE",
"918 89 OFFCURVE",
"918 328 CURVE SMOOTH",
"918 768 LINE SMOOTH",
"918 903 OFFCURVE",
"981 971 OFFCURVE",
"1108 971 CURVE SMOOTH",
"1219 971 OFFCURVE",
"1260 925 OFFCURVE",
"1283 813 CURVE SMOOTH",
"1294 756 OFFCURVE",
"1300 678 OFFCURVE",
"1300 578 CURVE SMOOTH",
"1300 0 LINE",
"1483 0 LINE",
"1483 578 LINE SMOOTH",
"1483 725 OFFCURVE",
"1472 836 OFFCURVE",
"1451 910 CURVE SMOOTH",
"1407 1058 OFFCURVE",
"1319 1116 OFFCURVE",
"1110 1116 CURVE SMOOTH",
"853 1116 OFFCURVE",
"743 1007 OFFCURVE",
"743 768 CURVE SMOOTH",
"743 328 LINE SMOOTH",
"743 200 OFFCURVE",
"678 125 OFFCURVE",
"561 125 CURVE SMOOTH",
"441 125 OFFCURVE",
"402 169 OFFCURVE",
"379 280 CURVE SMOOTH",
"368 335 OFFCURVE",
"362 415 OFFCURVE",
"362 518 CURVE SMOOTH",
"362 1096 LINE",
"180 1096 LINE",
"180 518 LINE SMOOTH",
"180 369 OFFCURVE",
"191 258 OFFCURVE",
"212 185 CURVE SMOOTH",
"254 38 OFFCURVE",
"339 -20 OFFCURVE",
"547 -20 CURVE SMOOTH"
);
}
);
width = 1663;
}
);
note = uniA91B;
unicode = A91B;
},
{
glyphname = uniA91C;
lastChange = "2016-11-10 18:09:50 +0000";
layers = (
{
layerId = "F31DF551-7806-40B7-BED2-49416D1FEF39";
paths = (
{
closed = 1;
nodes = (
"1013 -492 OFFCURVE",
"1149 -476 OFFCURVE",
"1237 -443 CURVE SMOOTH",
"1413 -379 OFFCURVE",
"1483 -241 OFFCURVE",
"1483 70 CURVE SMOOTH",
"1483 1096 LINE",
"1300 1096 LINE",
"1300 518 LINE SMOOTH",
"1300 418 OFFCURVE",
"1295 340 OFFCURVE",
"1284 283 CURVE SMOOTH",
"1262 169 OFFCURVE",
"1223 125 OFFCURVE",
"1094 125 CURVE SMOOTH",
"978 125 OFFCURVE",
"920 197 OFFCURVE",
"920 328 CURVE SMOOTH",
"920 768 LINE SMOOTH",
"920 1012 OFFCURVE",
"816 1116 OFFCURVE",
"561 1116 CURVE SMOOTH",
"454 1116 OFFCURVE",
"375 1100 OFFCURVE",
"324 1068 CURVE SMOOTH",
"221 1003 OFFCURVE",
"180 866 OFFCURVE",
"180 578 CURVE SMOOTH",
"180 0 LINE",
"362 0 LINE",
"362 578 LINE SMOOTH",
"362 679 OFFCURVE",
"368 758 OFFCURVE",
"380 814 CURVE SMOOTH",
"403 925 OFFCURVE",
"443 971 OFFCURVE",
"563 971 CURVE SMOOTH",
"684 971 OFFCURVE",
"745 903 OFFCURVE",
"745 768 CURVE SMOOTH",
"745 328 LINE SMOOTH",
"745 85 OFFCURVE",
"853 -20 OFFCURVE",
"1108 -20 CURVE SMOOTH",
"1196 -20 OFFCURVE",
"1257 6 OFFCURVE",
"1298 94 CURVE",
"1307 90 LINE",
"1301 59 OFFCURVE",
"1298 22 OFFCURVE",
"1298 -20 CURVE SMOOTH",
"1298 -189 OFFCURVE",
"1246 -271 OFFCURVE",
"1118 -310 CURVE SMOOTH",
"1054 -330 OFFCURVE",
"957 -340 OFFCURVE",
"827 -340 CURVE SMOOTH",
"692 -340 OFFCURVE",
"595 -335 OFFCURVE",
"536 -326 CURVE SMOOTH",
"418 -308 OFFCURVE",
"371 -271 OFFCURVE",
"371 -186 CURVE",
"184 -186 LINE",
"184 -358 OFFCURVE",
"249 -432 OFFCURVE",
"425 -466 CURVE SMOOTH",
"513 -483 OFFCURVE",
"648 -492 OFFCURVE",
"829 -492 CURVE SMOOTH"
);
}
);
width = 1663;
}
);
note = uniA91C;
unicode = A91C;
},
{
glyphname = uniA91D;
lastChange = "2016-11-10 18:10:00 +0000";
layers = (
{
layerId = "F31DF551-7806-40B7-BED2-49416D1FEF39";
paths = (
{
closed = 1;
nodes = (
"955 -20 OFFCURVE",
"1084 -3 OFFCURVE",
"1169 30 CURVE SMOOTH",
"1340 96 OFFCURVE",
"1401 233 OFFCURVE",
"1401 557 CURVE SMOOTH",
"1401 1098 LINE",
"1225 1098 LINE",
"1225 557 LINE SMOOTH",
"1225 431 OFFCURVE",
"1213 339 OFFCURVE",
"1188 282 CURVE SMOOTH",
"1139 167 OFFCURVE",
"1032 123 OFFCURVE",
"788 123 CURVE SMOOTH",
"673 123 OFFCURVE",
"585 135 OFFCURVE",
"525 160 CURVE SMOOTH",
"404 209 OFFCURVE",
"356 306 OFFCURVE",
"356 557 CURVE SMOOTH",
"356 954 LINE",
"674 954 LINE",
"674 1098 LINE",
"356 1098 LINE",
"356 1462 LINE",
"180 1462 LINE",
"180 557 LINE SMOOTH",
"180 401 OFFCURVE",
"198 283 OFFCURVE",
"233 203 CURVE SMOOTH",
"304 43 OFFCURVE",
"450 -20 OFFCURVE",
"782 -20 CURVE SMOOTH"
);
}
);
width = 1581;
}
);
note = uniA91D;
unicode = A91D;
},
{
glyphname = uniA91E;
lastChange = "2016-11-10 18:09:50 +0000";
layers = (
{
layerId = "F31DF551-7806-40B7-BED2-49416D1FEF39";
paths = (
{
closed = 1;
nodes = (
"965 -492 OFFCURVE",
"1095 -477 OFFCURVE",
"1176 -446 CURVE SMOOTH",
"1339 -386 OFFCURVE",
"1401 -261 OFFCURVE",
"1401 70 CURVE SMOOTH",
"1401 426 LINE",
"1225 426 LINE",
"1225 346 OFFCURVE",
"1211 285 OFFCURVE",
"1184 243 CURVE SMOOTH",
"1129 159 OFFCURVE",
"1016 123 OFFCURVE",
"788 123 CURVE SMOOTH",
"672 123 OFFCURVE",
"584 135 OFFCURVE",
"525 160 CURVE SMOOTH",
"406 209 OFFCURVE",
"362 306 OFFCURVE",
"362 557 CURVE SMOOTH",
"362 688 OFFCURVE",
"374 779 OFFCURVE",
"397 832 CURVE SMOOTH",
"443 937 OFFCURVE",
"539 975 OFFCURVE",
"786 975 CURVE SMOOTH",
"1114 975 OFFCURVE",
"1229 887 OFFCURVE",
"1229 678 CURVE",
"1399 678 LINE",
"1399 789 OFFCURVE",
"1380 876 OFFCURVE",
"1342 939 CURVE SMOOTH",
"1265 1065 OFFCURVE",
"1121 1118 OFFCURVE",
"793 1118 CURVE SMOOTH",
"618 1118 OFFCURVE",
"490 1103 OFFCURVE",
"407 1073 CURVE SMOOTH",
"241 1013 OFFCURVE",
"180 888 OFFCURVE",
"180 557 CURVE SMOOTH",
"180 401 OFFCURVE",
"198 283 OFFCURVE",
"233 203 CURVE SMOOTH",
"304 43 OFFCURVE",
"450 -20 OFFCURVE",
"782 -20 CURVE SMOOTH",
"897 -20 OFFCURVE",
"979 -17 OFFCURVE",
"1027 -10 CURVE SMOOTH",
"1122 2 OFFCURVE",
"1172 27 OFFCURVE",
"1217 94 CURVE",
"1225 90 LINE",
"1220 62 OFFCURVE",
"1217 32 OFFCURVE",
"1217 0 CURVE SMOOTH",
"1217 -99 OFFCURVE",
"1205 -171 OFFCURVE",
"1180 -218 CURVE SMOOTH",
"1131 -312 OFFCURVE",
"1031 -348 OFFCURVE",
"786 -348 CURVE SMOOTH",
"669 -348 OFFCURVE",
"585 -343 OFFCURVE",
"532 -334 CURVE SMOOTH",
"426 -316 OFFCURVE",
"385 -283 OFFCURVE",
"385 -186 CURVE",
"205 -186 LINE",
"205 -377 OFFCURVE",
"256 -437 OFFCURVE",
"412 -468 CURVE SMOOTH",
"489 -484 OFFCURVE",
"615 -492 OFFCURVE",
"788 -492 CURVE SMOOTH"
);
}
);
width = 1581;
}
);
note = uniA91E;
unicode = A91E;
},
{
glyphname = uniA91F;
lastChange = "2016-11-10 18:10:00 +0000";
layers = (
{
layerId = "F31DF551-7806-40B7-BED2-49416D1FEF39";
paths = (
{
closed = 1;
nodes = (
"1065 -492 LINE SMOOTH",
"1289 -492 OFFCURVE",
"1401 -372 OFFCURVE",
"1401 -133 CURVE SMOOTH",
"1401 1098 LINE",
"1225 1098 LINE",
"1225 989 LINE SMOOTH",
"1225 736 OFFCURVE",
"1137 528 OFFCURVE",
"980 381 CURVE SMOOTH",
"823 233 OFFCURVE",
"584 141 OFFCURVE",
"356 141 CURVE",
"356 266 LINE",
"587 471 OFFCURVE",
"715 728 OFFCURVE",
"715 993 CURVE SMOOTH",
"715 1098 LINE",
"475 1098 LINE SMOOTH",
"274 1098 OFFCURVE",
"180 1004 OFFCURVE",
"180 801 CURVE SMOOTH",
"180 -2 LINE",
"342 -2 LINE SMOOTH",
"639 -2 OFFCURVE",
"924 108 OFFCURVE",
"1104 297 CURVE SMOOTH",
"1179 377 OFFCURVE",
"1206 429 OFFCURVE",
"1233 522 CURVE",
"1243 520 LINE",
"1231 457 OFFCURVE",
"1225 383 OFFCURVE",
"1225 297 CURVE SMOOTH",
"1225 -170 LINE SMOOTH",
"1225 -286 OFFCURVE",
"1167 -350 OFFCURVE",
"1079 -350 CURVE SMOOTH",
"1012 -350 LINE",
"1012 -492 LINE"
);
},
{
closed = 1;
nodes = (
"356 831 LINE SMOOTH",
"356 911 OFFCURVE",
"397 956 OFFCURVE",
"461 956 CURVE SMOOTH",
"557 956 LINE",
"550 780 OFFCURVE",
"476 592 OFFCURVE",
"356 457 CURVE"
);
}
);
width = 1581;
}
);
note = uniA91F;
unicode = A91F;
},
{
glyphname = uniA920;
lastChange = "2016-11-10 18:10:00 +0000";
layers = (
{
layerId = "F31DF551-7806-40B7-BED2-49416D1FEF39";
paths = (
{
closed = 1;
nodes = (
"963 -20 OFFCURVE",
"1092 -5 OFFCURVE",
"1175 25 CURVE SMOOTH",
"1341 85 OFFCURVE",
"1401 210 OFFCURVE",
"1401 541 CURVE SMOOTH",
"1401 1098 LINE",
"1200 1098 LINE",
"786 705 LINE",
"381 1098 LINE",
"180 1098 LINE",
"180 514 LINE",
"356 514 LINE",
"356 909 LINE",
"764 516 LINE",
"809 516 LINE",
"1223 934 LINE",
"1223 471 LINE SMOOTH",
"1223 278 OFFCURVE",
"1178 198 OFFCURVE",
"1063 160 CURVE SMOOTH",
"1006 141 OFFCURVE",
"913 131 OFFCURVE",
"786 131 CURVE SMOOTH",
"629 131 OFFCURVE",
"520 141 OFFCURVE",
"460 160 CURVE SMOOTH",
"400 179 OFFCURVE",
"366 214 OFFCURVE",
"358 264 CURVE",
"182 264 LINE",
"202 117 OFFCURVE",
"279 41 OFFCURVE",
"436 6 CURVE SMOOTH",
"514 -11 OFFCURVE",
"631 -20 OFFCURVE",
"788 -20 CURVE SMOOTH"
);
}
);
width = 1581;
}
);
note = uniA920;
unicode = A920;
},
{
glyphname = uniA921;
lastChange = "2016-11-10 18:09:50 +0000";
layers = (
{
layerId = "F31DF551-7806-40B7-BED2-49416D1FEF39";
paths = (
{
closed = 1;
nodes = (
"356 0 LINE",
"356 817 LINE",
"1225 0 LINE",
"1401 0 LINE",
"1401 942 LINE SMOOTH",
"1401 1108 OFFCURVE",
"1384 1228 OFFCURVE",
"1350 1302 CURVE SMOOTH",
"1282 1450 OFFCURVE",
"1139 1503 OFFCURVE",
"788 1503 CURVE SMOOTH",
"633 1503 OFFCURVE",
"516 1494 OFFCURVE",
"437 1477 CURVE SMOOTH",
"280 1442 OFFCURVE",
"202 1367 OFFCURVE",
"182 1219 CURVE",
"373 1219 LINE",
"380 1271 OFFCURVE",
"413 1307 OFFCURVE",
"472 1328 CURVE SMOOTH",
"531 1348 OFFCURVE",
"636 1358 OFFCURVE",
"786 1358 CURVE SMOOTH",
"913 1358 OFFCURVE",
"1005 1348 OFFCURVE",
"1063 1328 CURVE SMOOTH",
"1179 1287 OFFCURVE",
"1225 1205 OFFCURVE",
"1225 1012 CURVE SMOOTH",
"1225 229 LINE",
"356 1036 LINE",
"180 1036 LINE",
"180 0 LINE"
);
}
);
width = 1581;
}
);
note = uniA921;
unicode = A921;
},
{
glyphname = uniA922;
lastChange = "2016-11-10 18:10:00 +0000";
layers = (
{
layerId = "F31DF551-7806-40B7-BED2-49416D1FEF39";
paths = (
{
closed = 1;
nodes = (
"957 -20 OFFCURVE",
"1078 -5 OFFCURVE",
"1161 24 CURVE SMOOTH",
"1325 82 OFFCURVE",
"1401 205 OFFCURVE",
"1401 426 CURVE",
"1229 426 LINE",
"1229 346 OFFCURVE",
"1216 285 OFFCURVE",
"1189 242 CURVE SMOOTH",
"1135 157 OFFCURVE",
"1027 123 OFFCURVE",
"788 123 CURVE SMOOTH",
"689 123 OFFCURVE",
"608 129 OFFCURVE",
"546 141 CURVE SMOOTH",
"422 164 OFFCURVE",
"362 210 OFFCURVE",
"362 309 CURVE SMOOTH",
"362 442 OFFCURVE",
"451 500 OFFCURVE",
"643 500 CURVE",
"643 629 LINE",
"454 629 OFFCURVE",
"383 679 OFFCURVE",
"383 807 CURVE SMOOTH",
"383 866 OFFCURVE",
"416 909 OFFCURVE",
"482 936 CURVE SMOOTH",
"548 962 OFFCURVE",
"649 975 OFFCURVE",
"786 975 CURVE SMOOTH",
"1110 975 OFFCURVE",
"1228 890 OFFCURVE",
"1231 678 CURVE",
"1401 678 LINE",
"1401 787 OFFCURVE",
"1382 874 OFFCURVE",
"1344 938 CURVE SMOOTH",
"1267 1065 OFFCURVE",
"1122 1118 OFFCURVE",
"793 1118 CURVE SMOOTH",
"650 1118 OFFCURVE",
"535 1108 OFFCURVE",
"450 1087 CURVE SMOOTH",
"278 1046 OFFCURVE",
"201 969 OFFCURVE",
"201 813 CURVE SMOOTH",
"201 654 OFFCURVE",
"253 598 OFFCURVE",
"406 563 CURVE",
"406 555 LINE",
"239 532 OFFCURVE",
"180 461 OFFCURVE",
"180 297 CURVE SMOOTH",
"180 217 OFFCURVE",
"201 155 OFFCURVE",
"243 111 CURVE SMOOTH",
"327 23 OFFCURVE",
"501 -20 OFFCURVE",
"797 -20 CURVE SMOOTH"
);
}
);
width = 1581;
}
);
note = uniA922;
unicode = A922;
},
{
glyphname = uniA923;
lastChange = "2016-11-10 18:10:00 +0000";
layers = (
{
layerId = "F31DF551-7806-40B7-BED2-49416D1FEF39";
paths = (
{
closed = 1;
nodes = (
"338 -18 LINE SMOOTH",
"627 -18 OFFCURVE",
"930 104 OFFCURVE",
"1110 297 CURVE SMOOTH",
"1174 366 OFFCURVE",
"1202 417 OFFCURVE",
"1233 522 CURVE",
"1243 520 LINE",
"1231 457 OFFCURVE",
"1225 383 OFFCURVE",
"1225 297 CURVE SMOOTH",
"1225 0 LINE",
"1401 0 LINE",
"1401 1098 LINE",
"1225 1098 LINE",
"1225 989 LINE SMOOTH",
"1225 737 OFFCURVE",
"1137 524 OFFCURVE",
"979 373 CURVE SMOOTH",
"821 222 OFFCURVE",
"581 125 OFFCURVE",
"356 125 CURVE",
"356 1098 LINE",
"180 1098 LINE",
"180 -18 LINE"
);
}
);
width = 1581;
}
);
note = uniA923;
unicode = A923;
},
{
glyphname = uniA924;
lastChange = "2016-11-10 18:10:00 +0000";
layers = (
{
layerId = "F31DF551-7806-40B7-BED2-49416D1FEF39";
paths = (
{
closed = 1;
nodes = (
"959 -20 OFFCURVE",
"1087 -4 OFFCURVE",
"1171 29 CURVE SMOOTH",
"1339 94 OFFCURVE",
"1401 232 OFFCURVE",
"1401 541 CURVE SMOOTH",
"1401 697 OFFCURVE",
"1383 815 OFFCURVE",
"1348 895 CURVE SMOOTH",
"1277 1055 OFFCURVE",
"1131 1118 OFFCURVE",
"799 1118 CURVE SMOOTH",
"640 1118 OFFCURVE",
"517 1103 OFFCURVE",
"431 1074 CURVE SMOOTH",
"258 1014 OFFCURVE",
"180 892 OFFCURVE",
"180 672 CURVE",
"352 672 LINE",
"352 749 OFFCURVE",
"366 809 OFFCURVE",
"394 853 CURVE SMOOTH",
"450 940 OFFCURVE",
"564 975 OFFCURVE",
"793 975 CURVE SMOOTH",
"938 975 OFFCURVE",
"1041 954 OFFCURVE",
"1102 913 CURVE",
"184 188 LINE",
"224 83 OFFCURVE",
"308 27 OFFCURVE",
"453 0 CURVE SMOOTH",
"525 -13 OFFCURVE",
"637 -20 OFFCURVE",
"788 -20 CURVE SMOOTH"
);
},
{
closed = 1;
nodes = (
"683 125 OFFCURVE",
"598 130 OFFCURVE",
"541 139 CURVE SMOOTH",
"484 148 OFFCURVE",
"439 161 OFFCURVE",
"408 178 CURVE",
"1191 791 LINE",
"1210 735 OFFCURVE",
"1219 652 OFFCURVE",
"1219 541 CURVE SMOOTH",
"1219 408 OFFCURVE",
"1208 316 OFFCURVE",
"1185 265 CURVE SMOOTH",
"1139 162 OFFCURVE",
"1044 125 OFFCURVE",
"795 125 CURVE SMOOTH"
);
}
);
width = 1581;
}
);
note = uniA924;
unicode = A924;
},
{
glyphname = uniA925;
lastChange = "2016-11-10 18:10:00 +0000";
layers = (
{
layerId = "F31DF551-7806-40B7-BED2-49416D1FEF39";
paths = (
{
closed = 1;
nodes = (
"955 -20 OFFCURVE",
"1084 -3 OFFCURVE",
"1169 30 CURVE SMOOTH",
"1340 96 OFFCURVE",
"1401 233 OFFCURVE",
"1401 557 CURVE SMOOTH",
"1401 708 OFFCURVE",
"1384 823 OFFCURVE",
"1351 901 CURVE SMOOTH",
"1284 1057 OFFCURVE",
"1140 1118 OFFCURVE",
"793 1118 CURVE SMOOTH",
"618 1118 OFFCURVE",
"490 1103 OFFCURVE",
"407 1073 CURVE SMOOTH",
"241 1013 OFFCURVE",
"180 888 OFFCURVE",
"180 557 CURVE SMOOTH",
"180 401 OFFCURVE",
"198 283 OFFCURVE",
"233 203 CURVE SMOOTH",
"304 43 OFFCURVE",
"450 -20 OFFCURVE",
"782 -20 CURVE SMOOTH"
);
},
{
closed = 1;
nodes = (
"672 123 OFFCURVE",
"584 135 OFFCURVE",
"525 160 CURVE SMOOTH",
"406 209 OFFCURVE",
"362 306 OFFCURVE",
"362 557 CURVE SMOOTH",
"362 608 OFFCURVE",
"363 654 OFFCURVE",
"366 694 CURVE",
"466 626 OFFCURVE",
"623 580 OFFCURVE",
"784 580 CURVE SMOOTH",
"939 580 OFFCURVE",
"1101 626 OFFCURVE",
"1212 691 CURVE",
"1217 652 OFFCURVE",
"1219 607 OFFCURVE",
"1219 557 CURVE SMOOTH",
"1219 427 OFFCURVE",
"1207 334 OFFCURVE",
"1182 278 CURVE SMOOTH",
"1133 166 OFFCURVE",
"1028 123 OFFCURVE",
"788 123 CURVE SMOOTH"
);
},
{
closed = 1;
nodes = (
"661 721 OFFCURVE",
"514 763 OFFCURVE",
"393 823 CURVE",
"437 935 OFFCURVE",
"537 973 OFFCURVE",
"786 973 CURVE SMOOTH",
"1031 973 OFFCURVE",
"1131 932 OFFCURVE",
"1183 820 CURVE",
"1070 764 OFFCURVE",
"915 721 OFFCURVE",
"784 721 CURVE SMOOTH"
);
}
);
width = 1581;
}
);
note = uniA925;
unicode = A925;
},
{
glyphname = uniA900;
lastChange = "2016-11-10 18:10:00 +0000";
layers = (
{
layerId = "F31DF551-7806-40B7-BED2-49416D1FEF39";
paths = (
{
closed = 1;
nodes = (
"955 -20 OFFCURVE",
"1084 -3 OFFCURVE",
"1169 30 CURVE SMOOTH",
"1340 96 OFFCURVE",
"1401 233 OFFCURVE",
"1401 557 CURVE SMOOTH",
"1401 708 OFFCURVE",
"1384 823 OFFCURVE",
"1351 901 CURVE SMOOTH",
"1284 1057 OFFCURVE",
"1140 1118 OFFCURVE",
"793 1118 CURVE SMOOTH",
"618 1118 OFFCURVE",
"490 1103 OFFCURVE",
"407 1073 CURVE SMOOTH",
"241 1013 OFFCURVE",
"180 888 OFFCURVE",
"180 557 CURVE SMOOTH",
"180 401 OFFCURVE",
"198 283 OFFCURVE",
"233 203 CURVE SMOOTH",
"304 43 OFFCURVE",
"450 -20 OFFCURVE",
"782 -20 CURVE SMOOTH"
);
},
{
closed = 1;
nodes = (
"672 123 OFFCURVE",
"584 135 OFFCURVE",
"525 160 CURVE SMOOTH",
"406 209 OFFCURVE",
"362 306 OFFCURVE",
"362 557 CURVE SMOOTH",
"362 688 OFFCURVE",
"374 779 OFFCURVE",
"397 832 CURVE SMOOTH",
"443 937 OFFCURVE",
"539 975 OFFCURVE",
"786 975 CURVE SMOOTH",
"902 975 OFFCURVE",
"990 964 OFFCURVE",
"1051 942 CURVE SMOOTH",
"1172 897 OFFCURVE",
"1219 804 OFFCURVE",
"1219 557 CURVE SMOOTH",
"1219 427 OFFCURVE",
"1207 334 OFFCURVE",
"1182 278 CURVE SMOOTH",
"1133 166 OFFCURVE",
"1028 123 OFFCURVE",
"788 123 CURVE SMOOTH"
);
}
);
width = 1581;
}
);
note = uniA900;
unicode = A900;
},
{
glyphname = uniA901;
lastChange = "2016-11-10 18:10:00 +0000";
layers = (
{
layerId = "F31DF551-7806-40B7-BED2-49416D1FEF39";
paths = (
{
closed = 1;
nodes = (
"1104 0 LINE SMOOTH",
"1179 0 OFFCURVE",
"1238 9 OFFCURVE",
"1279 27 CURVE SMOOTH",
"1361 62 OFFCURVE",
"1401 139 OFFCURVE",
"1401 268 CURVE SMOOTH",
"1401 420 LINE",
"1290 420 LINE SMOOTH",
"1195 420 OFFCURVE",
"1114 412 OFFCURVE",
"1047 395 CURVE SMOOTH",
"911 361 OFFCURVE",
"811 297 OFFCURVE",
"672 141 CURVE",
"583 141 OFFCURVE",
"517 147 OFFCURVE",
"476 158 CURVE SMOOTH",
"392 180 OFFCURVE",
"362 218 OFFCURVE",
"362 387 CURVE SMOOTH",
"362 526 OFFCURVE",
"404 563 OFFCURVE",
"514 584 CURVE SMOOTH",
"569 595 OFFCURVE",
"653 600 OFFCURVE",
"766 600 CURVE SMOOTH",
"879 600 OFFCURVE",
"966 597 OFFCURVE",
"1026 592 CURVE SMOOTH",
"1146 581 OFFCURVE",
"1202 561 OFFCURVE",
"1229 494 CURVE",
"1401 494 LINE",
"1401 1098 LINE",
"180 1098 LINE",
"180 956 LINE",
"1229 956 LINE",
"1229 698 LINE",
"1134 729 OFFCURVE",
"981 745 OFFCURVE",
"772 745 CURVE SMOOTH",
"624 745 OFFCURVE",
"508 734 OFFCURVE",
"423 712 CURVE SMOOTH",
"253 667 OFFCURVE",
"180 580 OFFCURVE",
"180 387 CURVE SMOOTH",
"180 158 OFFCURVE",
"226 71 OFFCURVE",
"373 31 CURVE SMOOTH",
"446 10 OFFCURVE",
"578 0 OFFCURVE",
"768 0 CURVE SMOOTH"
);
},
{
closed = 1;
nodes = (
"913 189 OFFCURVE",
"955 221 OFFCURVE",
"984 236 CURVE SMOOTH",
"1041 267 OFFCURVE",
"1106 280 OFFCURVE",
"1225 285 CURVE",
"1225 254 LINE SMOOTH",
"1225 183 OFFCURVE",
"1183 141 OFFCURVE",
"1108 141 CURVE SMOOTH",
"858 141 LINE"
);
}
);
width = 1581;
}
);
note = uniA901;
unicode = A901;
},
{
glyphname = uniA902;
lastChange = "2016-11-10 18:10:00 +0000";
layers = (
{
layerId = "F31DF551-7806-40B7-BED2-49416D1FEF39";
paths = (
{
closed = 1;
nodes = (
"805 0 LINE",
"1401 1098 LINE",
"1210 1098 LINE",
"797 295 LINE",
"383 1098 LINE",
"180 1098 LINE",
"774 0 LINE"
);
}
);
width = 1581;
}
);
note = uniA902;
unicode = A902;
},
{
glyphname = uniA903;
lastChange = "2016-11-10 18:10:00 +0000";
layers = (
{
layerId = "F31DF551-7806-40B7-BED2-49416D1FEF39";
paths = (
{
closed = 1;
nodes = (
"1104 0 LINE SMOOTH",
"1179 0 OFFCURVE",
"1238 9 OFFCURVE",
"1279 27 CURVE SMOOTH",
"1361 62 OFFCURVE",
"1401 139 OFFCURVE",
"1401 268 CURVE SMOOTH",
"1401 530 LINE",
"1296 530 LINE SMOOTH",
"1049 530 OFFCURVE",
"798 398 OFFCURVE",
"569 141 CURVE",
"383 141 LINE",
"1339 1071 LINE",
"1339 1098 LINE",
"594 1098 LINE SMOOTH",
"483 1098 OFFCURVE",
"401 1086 OFFCURVE",
"346 1063 CURVE SMOOTH",
"236 1016 OFFCURVE",
"182 916 OFFCURVE",
"182 739 CURVE",
"350 739 LINE",
"350 879 OFFCURVE",
"423 956 OFFCURVE",
"594 956 CURVE SMOOTH",
"999 956 LINE",
"180 156 LINE",
"180 0 LINE"
);
},
{
closed = 1;
nodes = (
"845 210 OFFCURVE",
"906 258 OFFCURVE",
"948 285 CURVE SMOOTH",
"1032 337 OFFCURVE",
"1123 373 OFFCURVE",
"1227 377 CURVE",
"1227 254 LINE SMOOTH",
"1227 183 OFFCURVE",
"1181 141 OFFCURVE",
"1108 141 CURVE SMOOTH",
"766 141 LINE"
);
}
);
width = 1581;
}
);
note = uniA903;
unicode = A903;
},
{
glyphname = uniA904;
lastChange = "2016-11-10 18:10:00 +0000";
layers = (
{
layerId = "F31DF551-7806-40B7-BED2-49416D1FEF39";
paths = (
{
closed = 1;
nodes = (
"1065 -10 LINE SMOOTH",
"1289 -10 OFFCURVE",
"1401 109 OFFCURVE",
"1401 348 CURVE SMOOTH",
"1401 1118 LINE",
"1243 1118 LINE SMOOTH",
"896 1118 OFFCURVE",
"495 934 OFFCURVE",
"348 719 CURVE",
"338 721 LINE",
"350 773 OFFCURVE",
"356 845 OFFCURVE",
"356 938 CURVE SMOOTH",
"356 1098 LINE",
"180 1098 LINE",
"180 471 LINE",
"356 471 LINE",
"373 548 OFFCURVE",
"430 627 OFFCURVE",
"527 710 CURVE SMOOTH",
"720 874 OFFCURVE",
"986 975 OFFCURVE",
"1225 975 CURVE",
"1225 317 LINE SMOOTH",
"1225 201 OFFCURVE",
"1167 137 OFFCURVE",
"1079 137 CURVE SMOOTH",
"1012 137 LINE",
"1012 -10 LINE"
);
}
);
width = 1581;
}
);
note = uniA904;
unicode = A904;
},
{
glyphname = uniA905;
lastChange = "2016-11-10 18:10:00 +0000";
layers = (
{
layerId = "F31DF551-7806-40B7-BED2-49416D1FEF39";
paths = (
{
closed = 1;
nodes = (
"674 0 LINE",
"674 141 LINE",
"356 141 LINE",
"356 956 LINE",
"1401 956 LINE",
"1401 1098 LINE",
"180 1098 LINE",
"180 0 LINE"
);
}
);
width = 1581;
}
);
note = uniA905;
unicode = A905;
},
{
glyphname = uniA906;
lastChange = "2016-11-10 18:10:00 +0000";
layers = (
{
layerId = "F31DF551-7806-40B7-BED2-49416D1FEF39";
paths = (
{
closed = 1;
nodes = (
"1308 -20 OFFCURVE",
"1401 90 OFFCURVE",
"1401 311 CURVE SMOOTH",
"1401 1118 LINE",
"1243 1118 LINE",
"356 580 LINE",
"356 1098 LINE",
"180 1098 LINE",
"180 0 LINE",
"356 0 LINE",
"356 410 LINE",
"1225 938 LINE",
"1225 438 LINE",
"1192 452 OFFCURVE",
"1156 459 OFFCURVE",
"1118 459 CURVE SMOOTH",
"939 459 OFFCURVE",
"850 379 OFFCURVE",
"850 219 CURVE SMOOTH",
"850 60 OFFCURVE",
"941 -20 OFFCURVE",
"1122 -20 CURVE SMOOTH"
);
},
{
closed = 1;
nodes = (
"1047 100 OFFCURVE",
"995 146 OFFCURVE",
"995 219 CURVE SMOOTH",
"995 292 OFFCURVE",
"1045 338 OFFCURVE",
"1120 338 CURVE SMOOTH",
"1163 338 OFFCURVE",
"1200 320 OFFCURVE",
"1225 309 CURVE",
"1225 281 LINE SMOOTH",
"1225 160 OFFCURVE",
"1190 100 OFFCURVE",
"1120 100 CURVE SMOOTH"
);
}
);
width = 1581;
}
);
note = uniA906;
unicode = A906;
},
{
glyphname = uniA907;
lastChange = "2016-11-10 18:10:00 +0000";
layers = (
{
layerId = "F31DF551-7806-40B7-BED2-49416D1FEF39";
paths = (
{
closed = 1;
nodes = (
"955 -20 OFFCURVE",
"1084 -3 OFFCURVE",
"1169 30 CURVE SMOOTH",
"1340 96 OFFCURVE",
"1401 233 OFFCURVE",
"1401 557 CURVE SMOOTH",
"1401 1098 LINE",
"907 1098 LINE",
"907 954 LINE",
"1225 954 LINE",
"1225 557 LINE SMOOTH",
"1225 431 OFFCURVE",
"1213 339 OFFCURVE",
"1188 282 CURVE SMOOTH",
"1139 167 OFFCURVE",
"1032 123 OFFCURVE",
"788 123 CURVE SMOOTH",
"673 123 OFFCURVE",
"585 135 OFFCURVE",
"525 160 CURVE SMOOTH",
"404 209 OFFCURVE",
"356 306 OFFCURVE",
"356 557 CURVE SMOOTH",
"356 842 LINE",
"180 842 LINE",
"180 557 LINE SMOOTH",
"180 401 OFFCURVE",
"198 283 OFFCURVE",
"233 203 CURVE SMOOTH",
"304 43 OFFCURVE",
"450 -20 OFFCURVE",
"782 -20 CURVE SMOOTH"
);
}
);
width = 1581;
}
);
note = uniA907;
unicode = A907;
},
{
glyphname = uniA908;
lastChange = "2016-11-10 18:10:00 +0000";
layers = (
{
layerId = "F31DF551-7806-40B7-BED2-49416D1FEF39";
paths = (
{
closed = 1;
nodes = (
"1401 0 LINE",
"1401 535 LINE",
"1225 535 LINE",
"1225 141 LINE",
"356 141 LINE",
"356 1098 LINE",
"180 1098 LINE",
"180 0 LINE"
);
}
);
width = 1581;
}
);
note = uniA908;
unicode = A908;
},
{
glyphname = uniA909;
lastChange = "2016-11-10 18:10:00 +0000";
layers = (
{
layerId = "F31DF551-7806-40B7-BED2-49416D1FEF39";
paths = (
{
closed = 1;
nodes = (
"955 -20 OFFCURVE",
"1084 -3 OFFCURVE",
"1169 30 CURVE SMOOTH",
"1340 96 OFFCURVE",
"1401 233 OFFCURVE",
"1401 557 CURVE SMOOTH",
"1401 842 LINE",
"1225 842 LINE",
"1225 557 LINE SMOOTH",
"1225 428 OFFCURVE",
"1214 336 OFFCURVE",
"1193 281 CURVE SMOOTH",
"1149 171 OFFCURVE",
"1032 123 OFFCURVE",
"788 123 CURVE SMOOTH",
"673 123 OFFCURVE",
"585 135 OFFCURVE",
"525 160 CURVE SMOOTH",
"404 209 OFFCURVE",
"356 306 OFFCURVE",
"356 557 CURVE SMOOTH",
"356 956 LINE",
"674 956 LINE",
"674 1098 LINE",
"180 1098 LINE",
"180 557 LINE SMOOTH",
"180 401 OFFCURVE",
"198 283 OFFCURVE",
"233 203 CURVE SMOOTH",
"304 43 OFFCURVE",
"450 -20 OFFCURVE",
"782 -20 CURVE SMOOTH"
);
}
);
width = 1581;
}
);
note = uniA909;
unicode = A909;
},
{
glyphname = uniA92E;
lastChange = "2016-11-10 18:09:50 +0000";
layers = (
{
layerId = "F31DF551-7806-40B7-BED2-49416D1FEF39";
paths = (
{
closed = 1;
nodes = (
"226 589 OFFCURVE",
"463 653 OFFCURVE",
"788 653 CURVE SMOOTH",
"1113 653 OFFCURVE",
"1356 588 OFFCURVE",
"1460 473 CURVE",
"1503 494 LINE",
"1482 551 OFFCURVE",
"1436 603 OFFCURVE",
"1367 652 CURVE SMOOTH",
"1227 748 OFFCURVE",
"1012 807 OFFCURVE",
"784 807 CURVE SMOOTH",
"672 807 OFFCURVE",
"566 793 OFFCURVE",
"465 766 CURVE SMOOTH",
"264 710 OFFCURVE",
"122 607 OFFCURVE",
"78 494 CURVE",
"121 473 LINE"
);
}
);
width = 1581;
}
);
note = uniA92E;
unicode = A92E;
},
{
glyphname = uniA92F;
lastChange = "2016-11-10 18:10:00 +0000";
layers = (
{
layerId = "F31DF551-7806-40B7-BED2-49416D1FEF39";
paths = (
{
closed = 1;
nodes = (
"352 2 LINE",
"352 1098 LINE",
"180 1098 LINE",
"180 2 LINE"
);
}
);
width = 532;
}
);
note = uniA92F;
unicode = A92F;
},
{
glyphname = .notdef;
lastChange = "2016-11-10 18:10:00 +0000";
layers = (
{
layerId = "F31DF551-7806-40B7-BED2-49416D1FEF39";
paths = (
{
closed = 1;
nodes = (
"1034 0 LINE",
"1034 1462 LINE",
"193 1462 LINE",
"193 0 LINE"
);
},
{
closed = 1;
nodes = (
"297 1358 LINE",
"930 1358 LINE",
"930 104 LINE",
"297 104 LINE"
);
}
);
width = 1229;
}
);
note = .notdef;
},
{
glyphname = uniA926;
lastChange = "2016-11-10 18:10:00 +0000";
layers = (
{
layerId = "F31DF551-7806-40B7-BED2-49416D1FEF39";
paths = (
{
closed = 1;
nodes = (
"-721 1251 OFFCURVE",
"-684 1291 OFFCURVE",
"-684 1358 CURVE SMOOTH",
"-684 1429 OFFCURVE",
"-723 1464 OFFCURVE",
"-788 1464 CURVE SMOOTH",
"-859 1464 OFFCURVE",
"-895 1429 OFFCURVE",
"-895 1358 CURVE SMOOTH",
"-895 1291 OFFCURVE",
"-860 1251 OFFCURVE",
"-788 1251 CURVE SMOOTH"
);
}
);
width = 0;
}
);
note = uniA926;
unicode = A926;
},
{
glyphname = uniA927;
lastChange = "2016-11-10 18:10:00 +0000";
layers = (
{
layerId = "F31DF551-7806-40B7-BED2-49416D1FEF39";
paths = (
{
closed = 1;
nodes = (
"-365 1305 LINE",
"-1192 1503 LINE",
"-1192 1352 LINE",
"-365 1155 LINE"
);
}
);
width = 0;
}
);
note = uniA927;
unicode = A927;
},
{
glyphname = uniA928;
lastChange = "2016-11-10 18:10:00 +0000";
layers = (
{
layerId = "F31DF551-7806-40B7-BED2-49416D1FEF39";
paths = (
{
closed = 1;
nodes = (
"-778 1354 LINE",
"-365 1155 LINE",
"-365 1305 LINE",
"-778 1503 LINE",
"-1192 1305 LINE",
"-1192 1155 LINE"
);
}
);
width = 0;
}
);
note = uniA928;
unicode = A928;
},
{
glyphname = uniA929;
lastChange = "2016-11-10 18:10:00 +0000";
layers = (
{
layerId = "F31DF551-7806-40B7-BED2-49416D1FEF39";
paths = (
{
closed = 1;
nodes = (
"-595 1190 OFFCURVE",
"-471 1214 OFFCURVE",
"-394 1266 CURVE SMOOTH",
"-318 1318 OFFCURVE",
"-287 1392 OFFCURVE",
"-287 1556 CURVE",
"-453 1556 LINE",
"-453 1491 OFFCURVE",
"-462 1443 OFFCURVE",
"-481 1410 CURVE SMOOTH",
"-519 1345 OFFCURVE",
"-597 1319 OFFCURVE",
"-776 1319 CURVE SMOOTH",
"-863 1319 OFFCURVE",
"-928 1326 OFFCURVE",
"-972 1339 CURVE SMOOTH",
"-1060 1366 OFFCURVE",
"-1096 1423 OFFCURVE",
"-1096 1556 CURVE",
"-1262 1556 LINE",
"-1262 1379 OFFCURVE",
"-1226 1311 OFFCURVE",
"-1150 1263 CURVE SMOOTH",
"-1075 1214 OFFCURVE",
"-956 1190 OFFCURVE",
"-780 1190 CURVE SMOOTH"
);
}
);
width = 0;
}
);
note = uniA929;
unicode = A929;
},
{
glyphname = uniA92A;
lastChange = "2016-11-10 18:10:00 +0000";
layers = (
{
layerId = "F31DF551-7806-40B7-BED2-49416D1FEF39";
paths = (
{
closed = 1;
nodes = (
"-595 1190 OFFCURVE",
"-471 1214 OFFCURVE",
"-394 1266 CURVE SMOOTH",
"-318 1318 OFFCURVE",
"-287 1392 OFFCURVE",
"-287 1556 CURVE",
"-453 1556 LINE",
"-453 1491 OFFCURVE",
"-462 1443 OFFCURVE",
"-481 1410 CURVE SMOOTH",
"-519 1345 OFFCURVE",
"-597 1319 OFFCURVE",
"-776 1319 CURVE SMOOTH",
"-863 1319 OFFCURVE",
"-928 1326 OFFCURVE",
"-972 1339 CURVE SMOOTH",
"-1060 1366 OFFCURVE",
"-1096 1423 OFFCURVE",
"-1096 1556 CURVE",
"-1262 1556 LINE",
"-1262 1379 OFFCURVE",
"-1226 1311 OFFCURVE",
"-1150 1263 CURVE SMOOTH",
"-1075 1214 OFFCURVE",
"-956 1190 OFFCURVE",
"-780 1190 CURVE SMOOTH"
);
},
{
closed = 1;
nodes = (
"-711 1356 OFFCURVE",
"-672 1394 OFFCURVE",
"-672 1462 CURVE SMOOTH",
"-672 1531 OFFCURVE",
"-709 1569 OFFCURVE",
"-776 1569 CURVE SMOOTH",
"-847 1569 OFFCURVE",
"-883 1533 OFFCURVE",
"-883 1462 CURVE SMOOTH",
"-883 1391 OFFCURVE",
"-847 1356 OFFCURVE",
"-776 1356 CURVE SMOOTH"
);
}
);
width = 0;
}
);
note = uniA92A;
unicode = A92A;
},
{
glyphname = uniA92B;
lastChange = "2016-11-10 18:10:00 +0000";
layers = (
{
layerId = "F31DF551-7806-40B7-BED2-49416D1FEF39";
paths = (
{
closed = 1;
nodes = (
"-721 -328 OFFCURVE",
"-684 -288 OFFCURVE",
"-684 -221 CURVE SMOOTH",
"-684 -150 OFFCURVE",
"-723 -115 OFFCURVE",
"-788 -115 CURVE SMOOTH",
"-859 -115 OFFCURVE",
"-895 -150 OFFCURVE",
"-895 -221 CURVE SMOOTH",
"-895 -288 OFFCURVE",
"-860 -328 OFFCURVE",
"-788 -328 CURVE SMOOTH"
);
}
);
width = 0;
}
);
note = uniA92B;
unicode = A92B;
},
{
glyphname = uniA92C;
lastChange = "2016-11-10 18:10:00 +0000";
layers = (
{
layerId = "F31DF551-7806-40B7-BED2-49416D1FEF39";
paths = (
{
closed = 1;
nodes = (
"-631 -492 OFFCURVE",
"-512 -479 OFFCURVE",
"-427 -454 CURVE SMOOTH",
"-259 -404 OFFCURVE",
"-180 -297 OFFCURVE",
"-180 -106 CURVE",
"-346 -106 LINE",
"-346 -241 OFFCURVE",
"-395 -307 OFFCURVE",
"-514 -338 CURVE SMOOTH",
"-574 -354 OFFCURVE",
"-667 -362 OFFCURVE",
"-793 -362 CURVE SMOOTH",
"-895 -362 OFFCURVE",
"-977 -355 OFFCURVE",
"-1040 -340 CURVE SMOOTH",
"-1166 -312 OFFCURVE",
"-1225 -262 OFFCURVE",
"-1225 -162 CURVE SMOOTH",
"-1225 -61 OFFCURVE",
"-1169 -15 OFFCURVE",
"-1034 4 CURVE",
"-1034 61 LINE",
"-1176 61 LINE",
"-1344 40 OFFCURVE",
"-1401 -14 OFFCURVE",
"-1401 -174 CURVE SMOOTH",
"-1401 -254 OFFCURVE",
"-1380 -316 OFFCURVE",
"-1338 -360 CURVE SMOOTH",
"-1255 -449 OFFCURVE",
"-1080 -492 OFFCURVE",
"-784 -492 CURVE SMOOTH"
);
}
);
width = 0;
}
);
note = uniA92C;
unicode = A92C;
},
{
glyphname = uniA92D;
lastChange = "2016-11-10 18:10:00 +0000";
layers = (
{
layerId = "F31DF551-7806-40B7-BED2-49416D1FEF39";
paths = (
{
closed = 1;
nodes = (
"-631 -492 OFFCURVE",
"-512 -479 OFFCURVE",
"-427 -454 CURVE SMOOTH",
"-259 -404 OFFCURVE",
"-180 -297 OFFCURVE",
"-180 -106 CURVE",
"-346 -106 LINE",
"-346 -241 OFFCURVE",
"-395 -307 OFFCURVE",
"-514 -338 CURVE SMOOTH",
"-574 -354 OFFCURVE",
"-667 -362 OFFCURVE",
"-793 -362 CURVE SMOOTH",
"-895 -362 OFFCURVE",
"-977 -355 OFFCURVE",
"-1040 -340 CURVE SMOOTH",
"-1166 -312 OFFCURVE",
"-1225 -262 OFFCURVE",
"-1225 -162 CURVE SMOOTH",
"-1225 -61 OFFCURVE",
"-1169 -15 OFFCURVE",
"-1034 4 CURVE",
"-1034 61 LINE",
"-1176 61 LINE",
"-1344 40 OFFCURVE",
"-1401 -14 OFFCURVE",
"-1401 -174 CURVE SMOOTH",
"-1401 -254 OFFCURVE",
"-1380 -316 OFFCURVE",
"-1338 -360 CURVE SMOOTH",
"-1255 -449 OFFCURVE",
"-1080 -492 OFFCURVE",
"-784 -492 CURVE SMOOTH"
);
},
{
closed = 1;
nodes = (
"-721 -287 OFFCURVE",
"-684 -247 OFFCURVE",
"-684 -180 CURVE SMOOTH",
"-684 -109 OFFCURVE",
"-723 -74 OFFCURVE",
"-788 -74 CURVE SMOOTH",
"-859 -74 OFFCURVE",
"-895 -109 OFFCURVE",
"-895 -180 CURVE SMOOTH",
"-895 -247 OFFCURVE",
"-860 -287 OFFCURVE",
"-788 -287 CURVE SMOOTH"
);
}
);
width = 0;
}
);
note = uniA92D;
unicode = A92D;
},
{
glyphname = g52;
lastChange = "2016-11-10 18:10:00 +0000";
layers = (
{
layerId = "F31DF551-7806-40B7-BED2-49416D1FEF39";
paths = (
{
closed = 1;
nodes = (
"-569 -492 OFFCURVE",
"-418 -469 OFFCURVE",
"-321 -409 CURVE SMOOTH",
"-224 -349 OFFCURVE",
"-180 -253 OFFCURVE",
"-180 -106 CURVE",
"-346 -106 LINE",
"-346 -209 OFFCURVE",
"-373 -273 OFFCURVE",
"-441 -311 CURVE SMOOTH",
"-510 -349 OFFCURVE",
"-622 -362 OFFCURVE",
"-793 -362 CURVE SMOOTH",
"-952 -362 OFFCURVE",
"-1060 -349 OFFCURVE",
"-1128 -314 CURVE SMOOTH",
"-1196 -279 OFFCURVE",
"-1225 -224 OFFCURVE",
"-1225 -140 CURVE SMOOTH",
"-1225 30 LINE",
"-1401 30 LINE",
"-1401 -148 LINE SMOOTH",
"-1401 -277 OFFCURVE",
"-1361 -364 OFFCURVE",
"-1264 -417 CURVE SMOOTH",
"-1168 -470 OFFCURVE",
"-1013 -492 OFFCURVE",
"-784 -492 CURVE SMOOTH"
);
}
);
width = 0;
}
);
note = g52;
},
{
glyphname = g53;
lastChange = "2016-11-10 18:10:00 +0000";
layers = (
{
layerId = "F31DF551-7806-40B7-BED2-49416D1FEF39";
paths = (
{
closed = 1;
nodes = (
"-569 -492 OFFCURVE",
"-418 -469 OFFCURVE",
"-321 -409 CURVE SMOOTH",
"-224 -349 OFFCURVE",
"-180 -253 OFFCURVE",
"-180 -106 CURVE",
"-346 -106 LINE",
"-346 -209 OFFCURVE",
"-373 -273 OFFCURVE",
"-441 -311 CURVE SMOOTH",
"-510 -349 OFFCURVE",
"-622 -362 OFFCURVE",
"-793 -362 CURVE SMOOTH",
"-952 -362 OFFCURVE",
"-1060 -349 OFFCURVE",
"-1128 -314 CURVE SMOOTH",
"-1196 -279 OFFCURVE",
"-1225 -224 OFFCURVE",
"-1225 -140 CURVE SMOOTH",
"-1225 30 LINE",
"-1401 30 LINE",
"-1401 -148 LINE SMOOTH",
"-1401 -277 OFFCURVE",
"-1361 -364 OFFCURVE",
"-1264 -417 CURVE SMOOTH",
"-1168 -470 OFFCURVE",
"-1013 -492 OFFCURVE",
"-784 -492 CURVE SMOOTH"
);
},
{
closed = 1;
nodes = (
"-720 -287 OFFCURVE",
"-684 -248 OFFCURVE",
"-684 -180 CURVE SMOOTH",
"-684 -108 OFFCURVE",
"-723 -74 OFFCURVE",
"-788 -74 CURVE SMOOTH",
"-859 -74 OFFCURVE",
"-895 -109 OFFCURVE",
"-895 -180 CURVE SMOOTH",
"-895 -248 OFFCURVE",
"-860 -287 OFFCURVE",
"-788 -287 CURVE SMOOTH"
);
}
